<svg width="21" height="16" viewBox="0 0 21 16" fill="none" xmlns="http://www.w3.org/2000/svg">
<path d="M6.21777 6.16439C6.32997 6.16439 6.44021 6.16439 6.55241 6.16439C10.7078 6.16439 14.8651 6.17018 19.0205 6.15667C19.8414 6.15474 20.4476 6.46553 20.8 7.17783C21.3767 8.3457 20.6327 9.62553 19.5067 9.82243C19.3926 9.84173 19.2725 9.8398 19.1544 9.8398C15.31 9.8398 11.4656 9.84173 7.6193 9.84366C7.19806 9.84366 6.77878 9.84366 6.35753 9.84752C6.31226 9.84752 6.26698 9.85331 6.18234 9.85718C6.25517 9.94211 6.30242 10.0077 6.35753 10.0637C7.20987 10.9362 8.0622 11.8088 8.92044 12.6774C9.32988 13.0925 9.60743 13.5654 9.6094 14.1542C9.6094 15.0827 8.92832 15.9359 7.93228 15.9957C7.42246 16.0266 6.96184 15.8915 6.59965 15.5344C6.04061 14.9823 5.49535 14.4167 4.94616 13.8569C3.7395 12.6234 2.53482 11.3899 1.33013 10.1545C1.04668 9.86297 0.77503 9.5599 0.485669 9.2742C-0.183601 8.61595 -0.144232 7.38631 0.499449 6.73964C1.98956 5.24167 3.44818 3.71283 4.9186 2.19556C5.44614 1.6512 5.96975 1.10491 6.49729 0.562473C6.82996 0.220799 7.23546 0.0142494 7.72166 0.000736931C8.58384 -0.0224274 9.28461 0.502632 9.52279 1.3269C9.72357 2.01604 9.54838 2.62796 9.08186 3.14723C8.64289 3.63754 8.16062 4.08925 7.70001 4.56219C7.22758 5.04671 6.75713 5.53509 6.28667 6.02347C6.25517 6.05629 6.22761 6.09297 6.20006 6.12771C6.20596 6.14122 6.21187 6.15281 6.21777 6.16632L6.21777 6.16439Z" fill="#151515"/>
</svg>
